<?xml version="1.0" encoding="UTF-8"?><svg xmlns="http://www.w3.org/2000/svg" viewBox="0 0 74.67 21.67"><defs><style>.cls-1{fill:#fff;}.cls-2{stroke-width:2.83px;}.cls-2,.cls-3{fill:none;opacity:.6;stroke:#009245;stroke-linecap:round;stroke-miterlimit:10;}.cls-3{stroke-width:1.98px;}</style></defs><g id="base"><path class="cls-1" d="M.81,14.96c-.06-.47-.1-.97-.13-1.52s-.04-1.06-.04-1.54c0-.76,.03-1.49,.08-2.19,.05-.7,.11-1.43,.19-2.19s.16-1.6,.25-2.5,.17-1.94,.24-3.12c.15,0,.36,.04,.64,.13s.56,.18,.84,.3,.53,.23,.75,.35c.22,.12,.34,.22,.37,.3-.19,.44-.37,1.02-.52,1.74-.15,.72-.28,1.51-.38,2.36-.1,.85-.18,1.72-.24,2.62s-.08,1.73-.08,2.52c0,.36,0,.72,.02,1.07,.01,.35,.03,.67,.05,.97,.24-.35,.51-.85,.82-1.5,.31-.65,.63-1.38,.97-2.19s.67-1.65,1-2.53,.64-1.72,.93-2.52c.28-.8,.52-1.52,.72-2.16,.2-.64,.34-1.12,.42-1.45,.15,0,.37,.04,.65,.13,.29,.08,.57,.18,.85,.3s.52,.23,.74,.35c.22,.12,.33,.22,.36,.3-.19,.44-.37,1.02-.52,1.74-.15,.72-.28,1.51-.38,2.36-.1,.85-.18,1.72-.24,2.62s-.08,1.73-.08,2.52c0,.33,0,.66,0,.98s.02,.62,.04,.88c.36-.94,.74-1.87,1.13-2.8,.39-.92,.78-1.81,1.17-2.65,.39-.84,.76-1.63,1.12-2.36,.36-.73,.7-1.38,1-1.96,.31-.57,.57-1.05,.8-1.42,.23-.37,.4-.62,.53-.75,.26,.03,.53,.13,.81,.28,.28,.15,.52,.35,.74,.59-.33,.26-.7,.69-1.12,1.28-.42,.59-.85,1.28-1.29,2.07-.44,.78-.89,1.62-1.33,2.5-.45,.88-.86,1.75-1.25,2.58-.39,.84-.73,1.62-1.03,2.35-.3,.72-.53,1.31-.69,1.75-.29,.14-.58,.2-.87,.2-.36-.04-.71-.14-1.03-.27-.32-.14-.55-.3-.69-.49-.03-.18-.06-.39-.08-.64-.02-.24-.04-.49-.05-.72-.01-.24-.02-.47-.03-.69s0-.41,0-.57c0-1.01,.04-2.04,.12-3.09,.08-1.05,.18-2.17,.29-3.38-.26,.77-.55,1.6-.87,2.48-.32,.88-.65,1.76-.99,2.63-.35,.87-.7,1.7-1.05,2.48-.36,.79-.71,1.47-1.05,2.05-.29,.14-.58,.2-.87,.2-.36-.04-.71-.14-1.03-.27-.32-.14-.55-.3-.69-.49ZM20.86,7.39c-.05,.7-.17,1.31-.37,1.81-.2,.5-.5,.95-.88,1.33s-.84,.72-1.39,1.03c-.54,.31-1.18,.6-1.91,.88,0,.07,0,.14,0,.21,0,.07,0,.15,0,.23,0,.15,.01,.3,.03,.46,.02,.16,.06,.31,.12,.44s.14,.25,.24,.33c.1,.08,.23,.13,.39,.13,.31,0,.61-.07,.9-.2,.29-.14,.58-.3,.84-.5,.27-.2,.52-.41,.75-.65,.23-.23,.44-.45,.62-.64,.11,.1,.21,.2,.29,.29-.51,.68-1.07,1.24-1.68,1.69-.61,.45-1.18,.73-1.73,.86-.78-.09-1.39-.38-1.83-.86-.44-.48-.65-1.06-.65-1.74,0-.46,.07-.94,.2-1.42,.13-.48,.31-.95,.54-1.39,.23-.45,.5-.87,.82-1.27,.31-.4,.65-.74,1-1.04,.36-.29,.73-.53,1.11-.7,.38-.17,.76-.25,1.13-.25,.52,.07,1.01,.39,1.46,.97Zm-1.17,.56c-.31,.05-.62,.17-.95,.37-.33,.2-.64,.48-.93,.82-.29,.34-.55,.74-.79,1.19-.24,.45-.43,.94-.56,1.46,.91-.45,1.66-1.01,2.26-1.67,.6-.66,.92-1.39,.97-2.17Zm3.52,6.6c.52-.35,1.03-.8,1.53-1.35s.95-1.15,1.36-1.79c.41-.64,.75-1.31,1.04-2,.28-.69,.48-1.35,.58-1.99,0-.14-.07-.23-.22-.27-.16,0-.38,.14-.65,.42-.28,.28-.58,.63-.92,1.06s-.67,.91-1.02,1.45c-.35,.53-.66,1.06-.94,1.59-.28,.53-.52,1.02-.72,1.48-.2,.46-.31,.83-.33,1.11-.11,0-.21-.11-.29-.34-.02-.06-.06-.12-.12-.18-.06-.06-.15-.14-.27-.23-.06-.04-.11-.1-.17-.16-.06-.06-.1-.12-.12-.16-.05-.09-.07-.24-.07-.44,0-.67,.08-1.42,.25-2.26,.17-.84,.39-1.69,.67-2.57,.28-.87,.6-1.73,.98-2.58,.37-.84,.76-1.62,1.17-2.32,.4-.7,.81-1.3,1.22-1.79,.41-.49,.79-.81,1.16-.97,.11,.03,.25,.09,.41,.17,.16,.08,.32,.17,.48,.27s.31,.2,.45,.31,.25,.19,.31,.27c-1.25,1.01-2.33,2.3-3.24,3.89-.91,1.58-1.66,3.45-2.24,5.6,.32-.59,.67-1.16,1.07-1.71s.79-1.03,1.18-1.45,.77-.75,1.12-1c.36-.25,.65-.37,.89-.37,.18,.05,.36,.12,.53,.24,.17,.11,.32,.25,.46,.42,.14,.16,.25,.34,.34,.53,.09,.19,.15,.38,.17,.59-.01,.48-.09,.98-.25,1.52-.15,.54-.36,1.07-.61,1.59-.26,.52-.54,1.02-.87,1.5-.32,.48-.66,.89-1.02,1.25-.36,.36-.71,.64-1.07,.86-.36,.21-.69,.32-1.01,.32-.14,0-.27-.01-.42-.04-.14-.03-.27-.07-.39-.12-.12-.05-.22-.1-.29-.16-.07-.06-.11-.11-.11-.17Zm14.22-8.06c.23,0,.49,.07,.78,.2,.29,.14,.56,.31,.78,.53-.06-.45-.13-.88-.21-1.28-.08-.4-.21-.82-.37-1.25-.16-.43-.38-.9-.65-1.41-.27-.51-.61-1.09-1.02-1.75,.03-.1,.11-.22,.23-.36s.26-.26,.41-.38c.15-.12,.31-.22,.48-.31,.16-.09,.32-.15,.47-.17,.32,.35,.62,.79,.9,1.32,.28,.53,.53,1.09,.75,1.7,.22,.61,.38,1.23,.5,1.88,.12,.65,.18,1.26,.18,1.85s-.06,1.2-.2,1.82c-.13,.62-.31,1.23-.54,1.83-.23,.59-.5,1.16-.81,1.69s-.64,1.01-1,1.43c-.36,.42-.73,.76-1.11,1.03-.39,.27-.77,.43-1.16,.5-.78-.09-1.38-.34-1.79-.76-.41-.41-.62-.98-.62-1.71,0-.39,.06-.8,.18-1.26,.12-.45,.28-.9,.48-1.35,.2-.45,.43-.88,.7-1.31,.27-.42,.55-.81,.85-1.15,.3-.34,.6-.63,.91-.87s.61-.39,.9-.46Zm-1.73,8.18c.4-.14,.79-.44,1.19-.9s.75-1.01,1.07-1.64c.32-.63,.58-1.3,.77-2.02,.2-.72,.3-1.41,.3-2.08v-.36s0-.09-.02-.14c-.27,.11-.56,.31-.87,.58s-.61,.59-.92,.94c-.31,.36-.6,.75-.87,1.17-.27,.42-.52,.84-.73,1.26-.22,.42-.39,.82-.51,1.21-.12,.39-.19,.73-.19,1.02,0,.57,.25,.89,.77,.97Zm11.48-7.28c-.05,.7-.17,1.31-.37,1.81-.2,.5-.5,.95-.88,1.33s-.84,.72-1.39,1.03c-.54,.31-1.18,.6-1.91,.88,0,.07,0,.14,0,.21,0,.07,0,.15,0,.23,0,.15,.01,.3,.03,.46,.02,.16,.06,.31,.12,.44s.14,.25,.24,.33c.1,.08,.23,.13,.39,.13,.31,0,.61-.07,.9-.2,.29-.14,.58-.3,.84-.5,.27-.2,.52-.41,.75-.65,.23-.23,.44-.45,.62-.64,.11,.1,.21,.2,.29,.29-.51,.68-1.07,1.24-1.68,1.69-.61,.45-1.18,.73-1.73,.86-.78-.09-1.39-.38-1.83-.86-.44-.48-.65-1.06-.65-1.74,0-.46,.07-.94,.2-1.42,.13-.48,.31-.95,.54-1.39,.23-.45,.5-.87,.82-1.27,.31-.4,.65-.74,1-1.04,.36-.29,.73-.53,1.11-.7,.38-.17,.76-.25,1.13-.25,.52,.07,1.01,.39,1.46,.97Zm-1.17,.56c-.31,.05-.62,.17-.95,.37-.33,.2-.64,.48-.93,.82-.29,.34-.55,.74-.79,1.19-.24,.45-.43,.94-.56,1.46,.91-.45,1.66-1.01,2.26-1.67,.6-.66,.92-1.39,.97-2.17Zm7.82-.31c-.01,.22-.05,.44-.11,.67s-.14,.44-.23,.63c-.09,.19-.19,.34-.29,.47-.1,.12-.2,.19-.29,.19-.12-.01-.2-.1-.22-.25,0-.03,.01-.09,.04-.16,.03-.07,.06-.16,.09-.25s.07-.18,.09-.27,.04-.17,.04-.24c0-.16-.04-.29-.11-.4-.07-.11-.17-.16-.3-.16-.45,0-.8,.28-1.04,.85s-.36,1.39-.36,2.49c0,.11,0,.18,.02,.2h1.19s.02,.07,.02,.13c0,.1-.02,.18-.07,.22-.26,.06-.47,.1-.62,.14-.15,.04-.27,.08-.35,.11s-.13,.07-.14,.11c-.02,.04-.03,.09-.03,.16,0,.09,0,.18,0,.27,0,.09,0,.2,0,.34,0,.95-.26,1.71-.77,2.29-.52,.58-1.23,.91-2.15,1-.16-.01-.32-.06-.49-.14-.17-.08-.33-.18-.48-.31-.15-.12-.29-.26-.4-.42-.11-.15-.19-.31-.24-.47,0-.43,.09-.85,.27-1.24,.18-.39,.43-.74,.74-1.05,.31-.3,.68-.55,1.11-.74s.89-.28,1.39-.28c0-.28-.03-.56-.08-.84-.06-.27-.12-.54-.18-.79-.06-.26-.12-.51-.18-.75s-.08-.49-.08-.73c0-.31,.06-.61,.19-.91,.12-.3,.29-.58,.49-.84,.2-.26,.44-.48,.71-.66,.27-.18,.56-.31,.85-.38,.12,.03,.29,.13,.5,.3,.21,.17,.42,.35,.62,.55s.39,.41,.54,.62c.16,.21,.25,.38,.29,.52Zm-5.61,7.76c.27-.11,.53-.28,.77-.49,.24-.22,.46-.46,.64-.73,.18-.27,.33-.56,.43-.87,.11-.31,.16-.61,.16-.9-.23,.03-.48,.14-.75,.31-.27,.18-.53,.39-.77,.63-.24,.24-.44,.5-.6,.76s-.24,.49-.24,.68c0,.25,.11,.45,.34,.61Zm5.65-2.1c0-.1,0-.23,.03-.38,.02-.15,.05-.36,.09-.61,.05-.25,.11-.56,.18-.93,.07-.36,.17-.8,.28-1.31,.02-.11,.07-.29,.15-.54,.08-.25,.18-.51,.32-.79,.13-.28,.29-.55,.48-.81,.19-.26,.41-.45,.67-.58,.19,.05,.45,.16,.77,.35,.32,.19,.59,.45,.82,.77-.26,.29-.48,.59-.66,.88-.18,.29-.33,.6-.48,.92-.14,.32-.27,.65-.39,.99s-.25,.7-.4,1.07c-.12,.32-.24,.64-.34,.98-.1,.33-.16,.63-.17,.88,0,.2,0,.35,0,.43,0,.08-.04,.13-.09,.13-.05,0-.14-.03-.27-.08-.14-.06-.27-.14-.42-.26-.14-.12-.27-.27-.38-.45-.11-.18-.17-.4-.17-.65Zm3.25-7.38c0-.07,.02-.17,.05-.31-.06-.06-.1-.14-.14-.25s-.06-.22-.06-.31c0-.1,.01-.24,.04-.42,.03-.17,.06-.37,.11-.57,.04-.2,.1-.42,.17-.64,.07-.22,.14-.42,.2-.6,.14,0,.3,.04,.5,.11s.4,.17,.6,.29,.39,.25,.56,.39c.17,.14,.3,.28,.39,.4-.12,.12-.29,.3-.49,.52-.2,.22-.4,.45-.59,.7-.19,.24-.37,.47-.53,.69-.16,.22-.26,.37-.31,.46-.14-.02-.25-.08-.36-.18-.1-.1-.15-.19-.15-.28Zm-2.69,13.59c0-.07,.02-.13,.07-.19,.04-.06,.1-.11,.15-.17,.14,.12,.25,.22,.35,.29,.1,.07,.19,.12,.27,.17s.17,.07,.26,.08c.09,.01,.2,.02,.32,.02,.59,0,1.15-.16,1.68-.47,.53-.31,1.04-.76,1.51-1.35,.47-.59,.9-1.31,1.28-2.16,.39-.85,.73-1.81,1.02-2.89-.14,.14-.3,.29-.5,.45-.2,.17-.41,.32-.62,.47-.22,.15-.43,.28-.64,.41s-.39,.22-.54,.27c-.19-.03-.37-.12-.54-.25-.17-.13-.31-.29-.43-.48-.12-.19-.22-.41-.29-.66-.07-.24-.1-.5-.1-.77,0-.44,.08-.9,.25-1.36,.17-.46,.38-.92,.66-1.37,.27-.45,.59-.87,.96-1.27,.37-.4,.76-.74,1.17-1.04,.41-.29,.83-.53,1.26-.71,.42-.18,.84-.26,1.25-.26s.69,.08,.89,.25c.2,.16,.34,.44,.43,.84-.12-.07-.28-.1-.48-.1-.27,0-.59,.11-.94,.32-.36,.22-.72,.5-1.09,.84s-.73,.74-1.1,1.19c-.36,.45-.68,.9-.96,1.37-.28,.47-.5,.92-.68,1.36-.18,.44-.26,.84-.26,1.19,0,.08,0,.13,.02,.14,.01,.02,.03,.03,.05,.03,.1,0,.24-.06,.42-.17,.17-.11,.37-.26,.59-.43,.22-.18,.45-.38,.69-.61,.24-.23,.46-.47,.68-.71,.49-.54,.93-1.15,1.33-1.83s.72-1.33,.96-1.96c.31,.02,.58,.07,.82,.15s.4,.16,.49,.25c-.39,.88-.69,1.63-.93,2.23-.23,.6-.43,1.13-.6,1.6-.31,.82-.59,1.56-.86,2.24s-.54,1.3-.82,1.87c-.28,.57-.58,1.11-.9,1.6s-.69,.97-1.1,1.42c-.19,.21-.41,.41-.65,.57-.24,.17-.49,.3-.75,.42s-.5,.2-.75,.25c-.24,.06-.47,.08-.67,.08-.27,0-.55-.03-.83-.09-.28-.06-.55-.15-.79-.26-.24-.11-.46-.23-.64-.37-.18-.14-.31-.29-.39-.45Zm13.84-13.32c.29,.09,.57,.29,.83,.6,.26,.31,.45,.66,.58,1.03-.12,.31-.32,.67-.58,1.11s-.52,.87-.78,1.32c-.26,.45-.5,.87-.71,1.28s-.33,.73-.37,1c.18-.19,.38-.42,.6-.67,.22-.25,.44-.51,.65-.77,.21-.25,.41-.49,.59-.7,.18-.21,.32-.37,.43-.47,.21-.23,.47-.49,.77-.79,.29-.3,.6-.58,.93-.85,.32-.27,.65-.49,.98-.68,.33-.19,.63-.28,.9-.28,.29,0,.54,.1,.74,.3s.35,.41,.47,.62c0,.02-.04,.05-.13,.09-.08,.04-.21,.15-.37,.33-.16,.2-.34,.49-.54,.84-.2,.36-.39,.74-.58,1.16s-.34,.84-.47,1.27c-.12,.43-.19,.82-.19,1.17,0,.28,.04,.46,.11,.54,.07,.08,.18,.12,.31,.12,.12,0,.25-.03,.39-.08,.14-.06,.24-.08,.32-.08,.05,.02,.08,.07,.11,.14,.03,.07,.04,.14,.04,.2-.09,.08-.2,.16-.32,.24s-.25,.15-.39,.22c-.14,.07-.27,.12-.4,.17-.13,.04-.25,.07-.35,.07-.33,0-.6-.05-.81-.14-.21-.1-.37-.22-.49-.38-.12-.16-.2-.35-.25-.57-.04-.22-.07-.46-.07-.71,0-.14,.01-.29,.03-.46,.02-.17,.07-.37,.14-.6s.16-.51,.29-.83,.28-.71,.48-1.17c-.02,0-.18,.08-.46,.24-.28,.16-.59,.4-.92,.73-.53,.51-1.01,1.01-1.44,1.51-.42,.5-.86,1.05-1.3,1.67-.25,.35-.47,.65-.66,.89-.19,.24-.35,.41-.48,.49-.24-.14-.41-.33-.53-.57s-.2-.5-.25-.76c0-.21,.03-.49,.09-.82,.06-.33,.15-.69,.25-1.1s.24-.83,.4-1.27c.16-.44,.33-.88,.53-1.33,.43-1,.83-1.78,1.18-2.35,.36-.57,.58-.87,.67-.92Z"/></g><g id="mask"><path class="cls-2" d="M2.39,3.37S.71,15.23,1.77,14.74,8.96,2.23,8.53,3.37s.09,13.18,.61,11.72S13.99,3.32,15.05,3.29"/><path class="cls-3" d="M15.94,11.94s4.17-1.74,4.03-2.59,.1-2.51-.8-2.2-4.32,3.21-4.12,4.1,.61,3.35,1.51,3.15,3.37-1,3.24-1.49"/><path class="cls-2" d="M27.34,1.42s-6.83,12.73-5.24,11.35,4.93-6.78,5.65-6.01-.67,7.44-3.34,7.65"/><path class="cls-2" d="M37.29,7.34s-5.87,7.53-2.39,7.4,6.71-9.42,3.06-13.32"/><path class="cls-3" d="M42.47,11.94s4.17-1.74,4.03-2.59,.1-2.51-.8-2.2-4.32,3.21-4.12,4.1,.61,3.35,1.51,3.15,3.37-1,3.24-1.49"/><path class="cls-3" d="M52.98,9.22s.62-1.25,.36-1.4-1.18-1.89-1.64-1.12-1.33,1.69-1.18,2.52,.27,3.88-.02,4.25-1.42,2.42-1.93,2.32-1.96-.45-1.39-1.12,1.8-3.74,4.68-2.88"/><path class="cls-2" d="M58.24,3.88c.08,.41,.5,.56-.61,1.28"/><path class="cls-2" d="M56.37,8.4s-2.83,4.32-1.95,5.4"/><path class="cls-2" d="M63.96,6.86s-4.67,2.41-4.93,3.87-1.54,3.68-.26,3.16,6.47-5.12,5.19-4.02-4.08,9.36-5.58,9.72-2.12,1.28-3.71,0"/><path class="cls-2" d="M68.48,7.53s-3.95,7.1-2.72,6.27,8.42-7.66,7.39-5.4-2.88,5.35-2,5.5,1.59,.31,1.8,0"/></g></svg>