<?xml version="1.0" encoding="UTF-8"?><svg xmlns="http://www.w3.org/2000/svg" viewBox="0 0 709.33 63.82"><defs><style>.cls-1{fill:#fff;}.cls-2{stroke-width:7px;}.cls-2,.cls-3,.cls-4,.cls-5{fill:none;opacity:.6;stroke:#22ac38;stroke-linecap:round;stroke-miterlimit:10;}.cls-3{stroke-width:9px;}.cls-4{stroke-width:8px;}.cls-5{stroke-width:11px;}</style></defs><g id="base"><path class="cls-1" d="M7.4,14.19c-1.33,0-2.36-.38-3.08-1.13-.72-.75-1.08-1.66-1.08-2.73,0-.27,.04-.58,.12-.95,.08-.37,.19-.69,.33-.95,.43,.11,1.08,.2,1.92,.24,.85,.05,1.84,.07,2.98,.07h5.77c2.15,0,4.21-.1,6.18-.3,1.97-.2,3.7-.39,5.2-.58s2.47-.27,2.9-.27c1.23,0,2.12,.46,2.67,1.38,.55,.92,.96,2.14,1.23,3.67-.87-.1-1.73-.15-2.58-.15h-5.4c-1.08,0-2.17,.07-3.27,.2-.47,.97-.98,2.11-1.55,3.43-.57,1.32-1.12,2.7-1.67,4.14s-1.08,2.87-1.58,4.29-.93,2.7-1.3,3.83c-.73,2.21-1.38,4.25-1.92,6.12-.55,1.87-1.03,3.62-1.45,5.24-.42,1.62-.77,3.17-1.08,4.64-.3,1.47-.57,2.91-.8,4.31-2.23-.33-4.1-1.73-5.6-4.2,.27-1.03,.59-2.16,.98-3.38,.38-1.22,.83-2.6,1.35-4.15,.52-1.55,1.12-3.31,1.82-5.28,.7-1.97,1.5-4.2,2.4-6.7,.33-.93,.68-1.91,1.05-2.92,.37-1.02,.73-2.03,1.08-3.03,.35-1,.67-1.97,.95-2.9,.28-.93,.52-1.78,.73-2.55-1.4,.17-2.73,.31-3.98,.42-1.25,.12-2.36,.18-3.32,.18ZM29.15,48.29c-1.6-.47-2.71-.93-3.32-1.4-.62-.47-.93-1.05-.93-1.75,0-.53,.15-1.29,.45-2.25s.74-2.11,1.33-3.43c.58-1.32,1.28-2.78,2.1-4.38,.82-1.6,1.74-3.32,2.78-5.16h-4c.2-.5,.77-.94,1.7-1.3,.93-.37,2.17-.69,3.7-.95,1.3-2.17,2.69-4.25,4.17-6.22,1.48-1.97,2.98-3.79,4.48-5.44,1.5-1.66,3-3.11,4.5-4.36s2.93-2.25,4.3-2.98c.03-.23,.06-.43,.08-.6,.02-.17,.02-.28,.02-.35,.47,0,1.09,.12,1.88,.35,.78,.23,1.55,.52,2.3,.85,.75,.33,1.42,.68,2,1.02,.58,.35,.91,.64,.97,.88-1.1,1.93-2.18,4.83-3.25,8.68-1.07,3.85-1.95,8.46-2.65,13.83-.17,1.33-.31,2.85-.42,4.55-.12,1.7-.18,3.6-.18,5.7v2.25c0,.77,.03,1.57,.1,2.4-.07,.03-.13,.05-.2,.05h-.4c-.47,0-1.01-.07-1.62-.22-.62-.15-1.22-.33-1.8-.54-.58-.21-1.08-.45-1.5-.71-.42-.26-.67-.49-.77-.69-.03-.43-.05-.85-.05-1.25v-1.3c0-2.03,.08-4.1,.23-6.2,.15-2.1,.41-4.27,.77-6.5-.47-.35-1.08-.53-1.85-.53h-8.8c-.8,1.48-1.55,2.95-2.25,4.41-.7,1.46-1.3,2.93-1.8,4.41-.57,1.58-1.02,3.16-1.38,4.73s-.58,3.06-.68,4.44Zm19.3-30.03c.13-.47,.29-1.11,.48-1.93,.18-.82,.36-1.68,.52-2.58-.83,.3-1.76,.85-2.77,1.65-1.02,.8-2.07,1.79-3.15,2.98-1.08,1.19-2.18,2.52-3.3,4.01-1.12,1.49-2.19,3.06-3.23,4.73,2.8-.28,5.98-.42,9.55-.42,.27-1.4,.56-2.8,.88-4.19,.32-1.39,.66-2.8,1.02-4.24Zm14.65,30.28c-1.27-.3-2.32-.82-3.15-1.57-.83-.75-1.6-1.69-2.3-2.83,.3-.63,.66-1.47,1.07-2.5,.42-1.03,.93-2.31,1.52-3.83,.6-1.52,1.32-3.33,2.15-5.45,.83-2.12,1.8-4.59,2.9-7.42,.7-1.8,1.27-3.32,1.73-4.55,.45-1.23,.83-2.44,1.15-3.62,.32-1.18,.62-2.49,.92-3.92,.3-1.43,.65-3.25,1.05-5.45,1.4,.27,2.67,.88,3.82,1.85,1.15,.97,2.14,2.13,2.98,3.5-.37,.47-.79,1.17-1.27,2.12-.48,.95-1.02,2.09-1.62,3.42-.6,1.33-1.27,2.82-2,4.45-.73,1.63-1.5,3.37-2.3,5.2-1.8,4-3.22,7.66-4.25,10.97-1.03,3.32-1.83,6.53-2.4,9.62Zm7.55-19.9c2.07-3.07,4.11-5.89,6.12-8.48,2.02-2.58,3.94-4.81,5.77-6.67,1.83-1.87,3.52-3.32,5.05-4.35,1.53-1.03,2.87-1.55,4-1.55,.43,0,.91,.17,1.43,.5,.52,.33,1,.77,1.45,1.3,.45,.53,.83,1.11,1.12,1.73,.3,.62,.45,1.21,.45,1.77-2.07,.67-4.09,1.54-6.08,2.62-1.98,1.08-3.88,2.33-5.7,3.75-1.82,1.42-3.55,2.99-5.2,4.73-1.65,1.73-3.14,3.58-4.48,5.55,.53,1.37,1.19,2.83,1.98,4.38,.78,1.55,1.64,3.05,2.58,4.5,.93,1.45,1.93,2.79,3,4.03,1.07,1.23,2.15,2.22,3.25,2.95-.17,.37-.45,.72-.85,1.05-.4,.33-.83,.64-1.3,.92s-.96,.51-1.47,.67c-.52,.17-.99,.25-1.43,.25-.87,0-1.67-.41-2.4-1.22-.73-.82-1.48-2.05-2.23-3.7-.75-1.65-1.53-3.7-2.35-6.15s-1.72-5.31-2.72-8.58ZM110.85,10.79c-1.47,1.97-2.8,4.13-4,6.5-1.2,2.37-2.23,4.79-3.08,7.28-.85,2.48-1.5,4.93-1.95,7.35-.45,2.42-.68,4.68-.68,6.78,0,2.6,.38,4.48,1.15,5.65,.77,1.17,2.08,1.75,3.95,1.75,2.17,0,4.07-.76,5.7-2.28,1.63-1.52,3.17-3.61,4.6-6.28,.93-1.73,1.73-3.63,2.4-5.7,.67-2.07,1.21-4.19,1.62-6.38,.42-2.18,.73-4.38,.92-6.6,.2-2.22,.3-4.34,.3-6.38,0-1.3-.02-2.25-.05-2.85-.03-.6-.08-1.08-.15-1.45,.1,0,.35,.03,.75,.1,.4,.07,.86,.15,1.38,.25,.52,.1,1.03,.23,1.55,.4,.52,.17,.96,.35,1.33,.55-.17,2.53-.48,5.15-.92,7.85-.45,2.7-1.04,5.37-1.78,8-.73,2.63-1.58,5.17-2.55,7.6-.97,2.43-2.05,4.62-3.25,6.55-1.77,2.87-3.75,5.11-5.95,6.73-2.2,1.62-4.8,2.42-7.8,2.42s-5.45-.89-7.15-2.67c-1.7-1.78-2.55-4.49-2.55-8.12,0-2.1,.23-4.47,.7-7.12,.47-2.65,1.09-5.35,1.88-8.1,.78-2.75,1.69-5.43,2.73-8.04,1.03-2.61,2.12-4.96,3.25-7.02,.57,0,1.23,.1,2,.3,.77,.2,1.52,.46,2.25,.78,.73,.32,1.41,.67,2.02,1.06,.62,.39,1.08,.75,1.38,1.08Zm36.3,37.4c-.07,.03-.13,.05-.2,.05h-.4c-.47,0-1.01-.08-1.62-.22-.62-.15-1.22-.33-1.8-.55-.58-.22-1.08-.46-1.5-.73-.42-.27-.67-.5-.77-.7-.03-.47-.05-.95-.05-1.45v-1.45c0-3.73,.27-7.63,.82-11.7,.55-4.07,1.46-8.47,2.73-13.2,.13-.47,.27-1.06,.43-1.77,.15-.72,.31-1.49,.47-2.33-.8,.63-1.75,1.64-2.85,3.02-1.1,1.38-2.26,3.02-3.48,4.9-1.22,1.88-2.43,3.95-3.65,6.2-1.22,2.25-2.33,4.53-3.33,6.85-1,2.32-1.86,4.61-2.58,6.88-.72,2.27-1.16,4.37-1.32,6.3-1.6-.47-2.71-.93-3.33-1.4-.62-.47-.92-1.03-.92-1.7,0-.6,.18-1.45,.55-2.55,.37-1.1,.88-2.4,1.55-3.9,.67-1.5,1.48-3.17,2.45-5.02,.97-1.85,2.03-3.84,3.2-5.98,1.33-2.43,2.64-4.72,3.92-6.85,1.28-2.13,2.54-4.07,3.77-5.8,1.23-1.73,2.44-3.23,3.62-4.5,1.18-1.27,2.36-2.23,3.53-2.9,.47,0,1.09,.12,1.88,.35,.78,.23,1.55,.52,2.3,.85,.75,.33,1.42,.68,2,1.02,.58,.35,.91,.64,.98,.88-.47,.93-1.02,2.33-1.65,4.2-.63,1.87-1.28,3.98-1.93,6.35-.65,2.37-1.27,4.88-1.85,7.52-.58,2.65-1.04,5.19-1.38,7.62,.77-1.83,1.66-3.74,2.68-5.73,1.02-1.98,2.09-3.95,3.23-5.9,1.13-1.95,2.29-3.84,3.47-5.67,1.18-1.83,2.34-3.51,3.48-5.03,1.13-1.52,2.19-2.84,3.18-3.97,.98-1.13,1.86-1.97,2.62-2.5,.46,0,1.09,.12,1.88,.35,.78,.23,1.55,.52,2.3,.85,.75,.33,1.42,.68,2,1.02,.58,.35,.91,.64,.97,.88-1.07,1.9-2,4.22-2.8,6.95-.8,2.73-1.47,5.6-2.03,8.6s-.97,5.98-1.25,8.92c-.28,2.95-.43,5.59-.43,7.93v2.4c0,.83,.03,1.7,.1,2.6-.47,0-1.03-.06-1.68-.17-.65-.12-1.28-.28-1.9-.48-.62-.2-1.17-.42-1.67-.67s-.85-.52-1.05-.83c-.03-.47-.05-.95-.05-1.45v-1.45c0-3.73,.28-7.63,.83-11.7,.55-4.07,1.46-8.47,2.72-13.2,.13-.47,.28-1.1,.45-1.9,.17-.8,.33-1.63,.5-2.5-.93,.47-1.99,1.36-3.17,2.67-1.18,1.32-2.38,2.92-3.6,4.8-1.22,1.88-2.42,3.97-3.6,6.27-1.18,2.3-2.25,4.64-3.2,7.02-.95,2.38-1.75,4.75-2.4,7.1-.65,2.35-1.04,4.51-1.17,6.47Zm27.95-6.55c0-1.2,.19-2.76,.58-4.68,.38-1.92,.88-3.99,1.5-6.2,.62-2.22,1.33-4.49,2.12-6.8,.8-2.32,1.62-4.49,2.45-6.53,.83-2.03,1.65-3.82,2.45-5.35,.8-1.53,1.52-2.63,2.15-3.3,.33,.03,.78,.16,1.33,.38,.55,.22,1.11,.48,1.67,.77,.57,.3,1.08,.62,1.55,.98s.77,.68,.9,.98c-.97,.87-1.92,2.17-2.88,3.92-.95,1.75-1.87,3.74-2.75,5.97-.88,2.23-1.71,4.59-2.47,7.07-.77,2.48-1.43,4.89-2,7.22-.57,2.33-1.01,4.5-1.33,6.5-.32,2-.48,3.61-.48,4.85,0,.57,.05,.92,.15,1.05-.73,0-1.27-.11-1.6-.33-.33-.22-.59-.45-.78-.7-.18-.25-.35-.5-.5-.75-.15-.25-.38-.44-.67-.58-.23-.1-.43-.33-.6-.7-.17-.37-.31-.78-.42-1.23-.12-.45-.21-.91-.27-1.38-.07-.47-.1-.85-.1-1.15Zm30.25,6.9c-1.27-.3-2.32-.82-3.15-1.57-.83-.75-1.6-1.69-2.3-2.83,.3-.63,.66-1.47,1.08-2.5,.42-1.03,.92-2.31,1.52-3.83,.6-1.52,1.32-3.33,2.15-5.45,.83-2.12,1.8-4.59,2.9-7.42,.7-1.8,1.28-3.32,1.73-4.55,.45-1.23,.83-2.44,1.15-3.62,.32-1.18,.62-2.49,.93-3.92,.3-1.43,.65-3.25,1.05-5.45,1.4,.27,2.67,.88,3.83,1.85,1.15,.97,2.14,2.13,2.97,3.5-.37,.47-.79,1.17-1.28,2.12s-1.02,2.09-1.62,3.42c-.6,1.33-1.27,2.82-2,4.45-.73,1.63-1.5,3.37-2.3,5.2-1.8,4-3.22,7.66-4.25,10.97-1.03,3.32-1.83,6.53-2.4,9.62Zm7.55-19.9c2.07-3.07,4.11-5.89,6.12-8.48,2.02-2.58,3.94-4.81,5.77-6.67,1.83-1.87,3.52-3.32,5.05-4.35,1.53-1.03,2.87-1.55,4-1.55,.43,0,.91,.17,1.42,.5,.52,.33,1,.77,1.45,1.3,.45,.53,.82,1.11,1.12,1.73,.3,.62,.45,1.21,.45,1.77-2.07,.67-4.09,1.54-6.07,2.62-1.98,1.08-3.88,2.33-5.7,3.75-1.82,1.42-3.55,2.99-5.2,4.73-1.65,1.73-3.14,3.58-4.47,5.55,.53,1.37,1.19,2.83,1.97,4.38,.78,1.55,1.64,3.05,2.58,4.5,.93,1.45,1.93,2.79,3,4.03,1.07,1.23,2.15,2.22,3.25,2.95-.17,.37-.45,.72-.85,1.05-.4,.33-.83,.64-1.3,.92s-.96,.51-1.47,.67c-.52,.17-.99,.25-1.42,.25-.87,0-1.67-.41-2.4-1.22-.73-.82-1.47-2.05-2.22-3.7-.75-1.65-1.53-3.7-2.35-6.15-.82-2.45-1.72-5.31-2.72-8.58Zm22.5,13c0-1.2,.19-2.76,.58-4.68,.38-1.92,.88-3.99,1.5-6.2,.62-2.22,1.33-4.49,2.12-6.8,.8-2.32,1.62-4.49,2.45-6.53,.83-2.03,1.65-3.82,2.45-5.35,.8-1.53,1.52-2.63,2.15-3.3,.33,.03,.78,.16,1.33,.38,.55,.22,1.11,.48,1.67,.77,.57,.3,1.08,.62,1.55,.98s.77,.68,.9,.98c-.97,.87-1.92,2.17-2.88,3.92-.95,1.75-1.87,3.74-2.75,5.97-.88,2.23-1.71,4.59-2.47,7.07-.77,2.48-1.43,4.89-2,7.22-.57,2.33-1.01,4.5-1.33,6.5-.32,2-.48,3.61-.48,4.85,0,.57,.05,.92,.15,1.05-.73,0-1.27-.11-1.6-.33-.33-.22-.59-.45-.78-.7-.18-.25-.35-.5-.5-.75-.15-.25-.38-.44-.67-.58-.23-.1-.43-.33-.6-.7-.17-.37-.31-.78-.42-1.23-.12-.45-.21-.91-.27-1.38-.07-.47-.1-.85-.1-1.15Zm18.35,6.9c-1.27-.3-2.32-.82-3.15-1.57-.83-.75-1.6-1.69-2.3-2.83,.3-.63,.66-1.47,1.08-2.5,.42-1.03,.92-2.31,1.52-3.83,.6-1.52,1.32-3.33,2.15-5.45,.83-2.12,1.8-4.59,2.9-7.42,.7-1.8,1.28-3.32,1.73-4.55,.45-1.23,.83-2.44,1.15-3.62,.32-1.18,.62-2.49,.93-3.92,.3-1.43,.65-3.25,1.05-5.45,1.4,.27,2.67,.88,3.83,1.85,1.15,.97,2.14,2.13,2.97,3.5-.37,.47-.79,1.17-1.28,2.12s-1.02,2.09-1.62,3.42c-.6,1.33-1.27,2.82-2,4.45-.73,1.63-1.5,3.37-2.3,5.2-1.8,4-3.22,7.66-4.25,10.97-1.03,3.32-1.83,6.53-2.4,9.62Zm7.55-19.9c2.07-3.07,4.11-5.89,6.12-8.48,2.02-2.58,3.94-4.81,5.77-6.67,1.83-1.87,3.52-3.32,5.05-4.35,1.53-1.03,2.87-1.55,4-1.55,.43,0,.91,.17,1.42,.5,.52,.33,1,.77,1.45,1.3,.45,.53,.82,1.11,1.12,1.73,.3,.62,.45,1.21,.45,1.77-2.07,.67-4.09,1.54-6.07,2.62-1.98,1.08-3.88,2.33-5.7,3.75-1.82,1.42-3.55,2.99-5.2,4.73-1.65,1.73-3.14,3.58-4.47,5.55,.53,1.37,1.19,2.83,1.97,4.38,.78,1.55,1.64,3.05,2.58,4.5,.93,1.45,1.93,2.79,3,4.03,1.07,1.23,2.15,2.22,3.25,2.95-.17,.37-.45,.72-.85,1.05-.4,.33-.83,.64-1.3,.92s-.96,.51-1.47,.67c-.52,.17-.99,.25-1.42,.25-.87,0-1.67-.41-2.4-1.22-.73-.82-1.47-2.05-2.22-3.7-.75-1.65-1.53-3.7-2.35-6.15-.82-2.45-1.72-5.31-2.72-8.58Zm40.2-17.85c-1.47,1.97-2.8,4.13-4,6.5-1.2,2.37-2.22,4.79-3.08,7.28-.85,2.48-1.5,4.93-1.95,7.35-.45,2.42-.67,4.68-.67,6.78,0,2.6,.38,4.48,1.15,5.65,.77,1.17,2.08,1.75,3.95,1.75,2.17,0,4.07-.76,5.7-2.28s3.17-3.61,4.6-6.28c.93-1.73,1.73-3.63,2.4-5.7,.67-2.07,1.21-4.19,1.62-6.38,.42-2.18,.73-4.38,.93-6.6,.2-2.22,.3-4.34,.3-6.38,0-1.3-.02-2.25-.05-2.85-.03-.6-.08-1.08-.15-1.45,.1,0,.35,.03,.75,.1,.4,.07,.86,.15,1.38,.25,.52,.1,1.03,.23,1.55,.4,.52,.17,.96,.35,1.33,.55-.17,2.53-.47,5.15-.92,7.85-.45,2.7-1.04,5.37-1.78,8-.73,2.63-1.58,5.17-2.55,7.6-.97,2.43-2.05,4.62-3.25,6.55-1.77,2.87-3.75,5.11-5.95,6.73-2.2,1.62-4.8,2.42-7.8,2.42s-5.45-.89-7.15-2.67c-1.7-1.78-2.55-4.49-2.55-8.12,0-2.1,.23-4.47,.7-7.12,.47-2.65,1.09-5.35,1.88-8.1s1.69-5.43,2.72-8.04,2.12-4.96,3.25-7.02c.57,0,1.23,.1,2,.3s1.52,.46,2.25,.78,1.41,.67,2.03,1.06c.62,.39,1.08,.75,1.38,1.08Zm24.2,5.83c-.13-.49-.24-1.05-.32-1.7-.08-.65-.12-1.6-.12-2.85,0-.8,.02-1.61,.05-2.43,.03-.82,.18-1.53,.45-2.12,1.63,.33,3.38,.63,5.22,.91,1.85,.27,3.74,.52,5.67,.74,1.93,.22,3.87,.33,5.8,.33h5.6c2.47,0,4.45-.04,5.95-.12,.53,.79,.87,1.73,1,2.8,.13,1.08,.2,2.09,.2,3.02-3.83,1.54-7.47,3.51-10.9,5.89-3.43,2.38-6.55,4.87-9.35,7.47-2.8,2.6-5.22,5.16-7.25,7.69-2.03,2.53-3.55,4.73-4.55,6.61,.6-.12,1.22-.23,1.85-.33,.63-.1,1.32-.19,2.05-.27,.73-.08,1.55-.16,2.45-.24,.9-.08,1.93-.12,3.1-.12,1.63,0,3.07-.13,4.3-.39s2.28-.53,3.15-.83c.87-.29,1.56-.57,2.08-.83,.52-.26,.89-.47,1.12-.64,.13,.3,.29,.74,.47,1.34,.18,.59,.35,1.24,.5,1.95,.15,.71,.28,1.43,.38,2.18,.1,.74,.15,1.43,.15,2.05,0,.33,0,.55-.03,.67-.02,.11-.04,.24-.08,.37-1.5,0-3.01-.08-4.52-.24-1.52-.16-3.03-.24-4.53-.24-2,0-4.08,.11-6.22,.33-2.15,.22-4.22,.55-6.2,1-1.98,.45-3.8,1.03-5.45,1.73-1.65,.7-2.97,1.53-3.97,2.5-.27-.87-.54-1.61-.83-2.23-.28-.62-.42-1.36-.42-2.23s.17-1.56,.52-2.08c.35-.52,.83-.94,1.42-1.28,2-2.87,4.28-5.72,6.83-8.54s5.28-5.55,8.17-8.19c2.9-2.64,5.9-5.15,9-7.54,3.1-2.39,6.2-4.56,9.3-6.53h-11c-1.53,0-2.98,.09-4.35,.28-1.37,.19-2.62,.46-3.77,.81-1.15,.35-2.12,.78-2.93,1.28Zm28.6,31.67c-1.6-.47-2.71-.93-3.33-1.4-.62-.47-.92-1.05-.92-1.75,0-.53,.15-1.29,.45-2.25s.74-2.11,1.33-3.43c.58-1.32,1.28-2.78,2.1-4.38,.82-1.6,1.74-3.32,2.78-5.16h-4c.2-.5,.77-.94,1.7-1.3,.93-.37,2.17-.69,3.7-.95,1.3-2.17,2.69-4.25,4.18-6.22,1.48-1.97,2.97-3.79,4.47-5.44,1.5-1.66,3-3.11,4.5-4.36s2.93-2.25,4.3-2.98c.03-.23,.06-.43,.08-.6,.02-.17,.03-.28,.03-.35,.47,0,1.09,.12,1.88,.35,.78,.23,1.55,.52,2.3,.85,.75,.33,1.42,.68,2,1.02,.58,.35,.91,.64,.97,.88-1.1,1.93-2.18,4.83-3.25,8.68-1.07,3.85-1.95,8.46-2.65,13.83-.17,1.33-.31,2.85-.43,4.55-.12,1.7-.17,3.6-.17,5.7v2.25c0,.77,.03,1.57,.1,2.4-.07,.03-.13,.05-.2,.05h-.4c-.47,0-1.01-.07-1.62-.22-.62-.15-1.22-.33-1.8-.54-.58-.21-1.08-.45-1.5-.71-.42-.26-.67-.49-.78-.69-.03-.43-.05-.85-.05-1.25v-1.3c0-2.03,.08-4.1,.23-6.2,.15-2.1,.41-4.27,.77-6.5-.47-.35-1.08-.53-1.85-.53h-8.8c-.8,1.48-1.55,2.95-2.25,4.41-.7,1.46-1.3,2.93-1.8,4.41-.57,1.58-1.02,3.16-1.38,4.73-.35,1.58-.57,3.06-.67,4.44Zm19.3-30.03c.13-.47,.29-1.11,.48-1.93,.18-.82,.36-1.68,.52-2.58-.83,.3-1.76,.85-2.77,1.65-1.02,.8-2.07,1.79-3.15,2.98-1.08,1.19-2.18,2.52-3.3,4.01-1.12,1.49-2.19,3.06-3.22,4.73,2.8-.28,5.98-.42,9.55-.42,.27-1.4,.56-2.8,.88-4.19,.32-1.39,.66-2.8,1.02-4.24Zm16.95,27.78c-.17-1.37-.29-2.86-.38-4.47-.08-1.62-.12-3.12-.12-4.53,0-2.23,.08-4.38,.22-6.42,.15-2.05,.33-4.2,.55-6.45s.46-4.7,.73-7.35c.27-2.65,.5-5.71,.7-9.18,.43,0,1.06,.12,1.88,.38,.82,.25,1.64,.54,2.47,.88,.83,.33,1.57,.68,2.2,1.02,.63,.35,1,.64,1.1,.88-.57,1.3-1.08,3.01-1.52,5.12-.45,2.12-.83,4.43-1.12,6.93-.3,2.5-.53,5.07-.7,7.7-.17,2.63-.25,5.1-.25,7.4,0,1.07,.02,2.12,.05,3.15s.08,1.98,.15,2.85c.7-1.03,1.51-2.51,2.42-4.42,.92-1.92,1.87-4.06,2.85-6.43,.98-2.37,1.97-4.84,2.95-7.43,.98-2.58,1.89-5.05,2.72-7.4s1.54-4.47,2.12-6.35c.58-1.88,.99-3.31,1.23-4.27,.43,0,1.08,.12,1.92,.38s1.68,.54,2.5,.88c.82,.33,1.54,.68,2.17,1.02,.63,.35,.98,.64,1.05,.88-.57,1.3-1.07,3.01-1.52,5.12-.45,2.12-.83,4.43-1.12,6.93s-.53,5.07-.7,7.7c-.17,2.63-.25,5.1-.25,7.4,0,.97,0,1.92,.03,2.88,.02,.95,.06,1.81,.12,2.58,1.07-2.77,2.17-5.51,3.32-8.23,1.15-2.72,2.29-5.32,3.43-7.8,1.13-2.48,2.23-4.8,3.3-6.95,1.07-2.15,2.05-4.07,2.95-5.75,.9-1.68,1.68-3.07,2.35-4.17,.67-1.1,1.18-1.83,1.55-2.2,.77,.1,1.56,.38,2.38,.83,.82,.45,1.54,1.02,2.17,1.73-.97,.77-2.07,2.02-3.3,3.77s-2.5,3.77-3.8,6.08c-1.3,2.3-2.61,4.75-3.92,7.35-1.32,2.6-2.54,5.13-3.67,7.6-1.13,2.47-2.14,4.77-3.03,6.9-.88,2.13-1.56,3.85-2.03,5.15-.87,.4-1.72,.6-2.55,.6-1.07-.13-2.08-.4-3.02-.8-.95-.4-1.62-.88-2.03-1.45-.1-.53-.18-1.16-.25-1.88-.07-.72-.12-1.42-.15-2.12-.03-.7-.06-1.38-.07-2.02-.02-.65-.03-1.21-.03-1.67,0-2.97,.12-5.99,.35-9.08,.23-3.08,.52-6.39,.85-9.92-.77,2.27-1.62,4.7-2.55,7.3-.93,2.6-1.91,5.18-2.93,7.73s-2.05,4.98-3.1,7.3c-1.05,2.32-2.08,4.33-3.08,6.03-.87,.4-1.72,.6-2.55,.6-1.07-.13-2.08-.4-3.03-.8-.95-.4-1.62-.88-2.02-1.45Zm43.5,2.25c-1.6-.47-2.71-.93-3.33-1.4-.62-.47-.92-1.05-.92-1.75,0-.53,.15-1.29,.45-2.25s.74-2.11,1.33-3.43c.58-1.32,1.28-2.78,2.1-4.38,.82-1.6,1.74-3.32,2.78-5.16h-4c.2-.5,.77-.94,1.7-1.3,.93-.37,2.17-.69,3.7-.95,1.3-2.17,2.69-4.25,4.18-6.22,1.48-1.97,2.97-3.79,4.47-5.44,1.5-1.66,3-3.11,4.5-4.36s2.93-2.25,4.3-2.98c.03-.23,.06-.43,.08-.6,.02-.17,.03-.28,.03-.35,.47,0,1.09,.12,1.88,.35,.78,.23,1.55,.52,2.3,.85,.75,.33,1.42,.68,2,1.02,.58,.35,.91,.64,.97,.88-1.1,1.93-2.18,4.83-3.25,8.68-1.07,3.85-1.95,8.46-2.65,13.83-.17,1.33-.31,2.85-.43,4.55-.12,1.7-.17,3.6-.17,5.7v2.25c0,.77,.03,1.57,.1,2.4-.07,.03-.13,.05-.2,.05h-.4c-.47,0-1.01-.07-1.62-.22-.62-.15-1.22-.33-1.8-.54-.58-.21-1.08-.45-1.5-.71-.42-.26-.67-.49-.78-.69-.03-.43-.05-.85-.05-1.25v-1.3c0-2.03,.08-4.1,.23-6.2,.15-2.1,.41-4.27,.77-6.5-.47-.35-1.08-.53-1.85-.53h-8.8c-.8,1.48-1.55,2.95-2.25,4.41-.7,1.46-1.3,2.93-1.8,4.41-.57,1.58-1.02,3.16-1.38,4.73-.35,1.58-.57,3.06-.67,4.44Zm19.3-30.03c.13-.47,.29-1.11,.48-1.93,.18-.82,.36-1.68,.52-2.58-.83,.3-1.76,.85-2.77,1.65-1.02,.8-2.07,1.79-3.15,2.98-1.08,1.19-2.18,2.52-3.3,4.01-1.12,1.49-2.19,3.06-3.22,4.73,2.8-.28,5.98-.42,9.55-.42,.27-1.4,.56-2.8,.88-4.19,.32-1.39,.66-2.8,1.02-4.24Zm17.5-.07c-.2-.17-.38-.44-.55-.83-.17-.38-.25-.74-.25-1.08,.83-1.4,1.43-2.81,1.8-4.22,.37-1.42,.55-3.01,.55-4.78,0-1.33-.1-2.8-.3-4.4,.83,.07,1.66,.21,2.47,.43s1.55,.48,2.2,.8c.65,.32,1.19,.68,1.62,1.1,.43,.42,.7,.82,.8,1.23-1.27,5.57-4.05,9.48-8.35,11.75Zm44.85,6.32c-.03,.63-.14,1.29-.32,1.98-.18,.68-.41,1.3-.68,1.85-.27,.55-.55,1.01-.85,1.38-.3,.37-.58,.55-.85,.55-.37-.03-.58-.28-.65-.75,0-.1,.04-.26,.12-.48,.08-.22,.17-.46,.28-.72,.1-.27,.19-.53,.27-.8,.08-.27,.12-.5,.12-.7,0-.47-.11-.86-.33-1.18-.22-.32-.51-.48-.88-.48-1.33,0-2.35,.83-3.05,2.49-.7,1.66-1.05,4.1-1.05,7.31,0,.33,.02,.53,.05,.6h3.5c.03,.07,.05,.2,.05,.4,0,.3-.07,.51-.2,.65-.77,.17-1.38,.31-1.83,.42-.45,.12-.79,.22-1.03,.32-.23,.1-.38,.21-.42,.32s-.08,.27-.08,.47c0,.27,0,.53,.03,.8,.02,.27,.02,.6,.02,.99,0,2.79-.76,5.03-2.27,6.73-1.52,1.7-3.62,2.68-6.33,2.95-.47-.03-.95-.17-1.45-.4-.5-.23-.97-.53-1.42-.9-.45-.37-.84-.78-1.17-1.22-.33-.45-.57-.91-.7-1.38,0-1.28,.27-2.49,.8-3.65s1.26-2.18,2.17-3.07,2-1.61,3.25-2.17c1.25-.55,2.61-.83,4.08-.83,0-.84-.08-1.66-.25-2.46-.17-.8-.34-1.58-.52-2.34-.18-.75-.36-1.49-.53-2.21-.17-.72-.25-1.43-.25-2.13,0-.9,.18-1.8,.55-2.69,.37-.89,.85-1.71,1.45-2.46,.6-.75,1.3-1.4,2.1-1.93,.8-.54,1.63-.9,2.5-1.11,.37,.1,.86,.39,1.48,.88,.62,.48,1.22,1.03,1.83,1.62,.6,.6,1.13,1.21,1.6,1.83,.47,.62,.75,1.12,.85,1.52Zm-16.5,22.8c.8-.33,1.56-.82,2.28-1.45,.72-.63,1.34-1.35,1.88-2.15,.53-.8,.96-1.65,1.28-2.55,.32-.9,.47-1.78,.47-2.65-.67,.1-1.4,.41-2.2,.92-.8,.52-1.55,1.13-2.25,1.85-.7,.72-1.28,1.46-1.75,2.23s-.7,1.43-.7,2c0,.73,.33,1.33,1,1.8Zm36.7,13.72c-.47-.13-.73-.63-.8-1.5-.13-.43-.23-.95-.28-1.55-.05-.6-.08-1.28-.08-2.05,0-.7,.12-1.66,.35-2.88,.23-1.22,.56-2.59,.97-4.12,.42-1.53,.92-3.19,1.53-4.97,.6-1.78,1.27-3.59,2-5.43,.9-2.3,1.68-4.29,2.35-5.97,.67-1.68,1.22-3.14,1.67-4.38,.45-1.23,.82-2.25,1.1-3.05,.28-.8,.51-1.48,.67-2.05,.13-.4,.33-.88,.6-1.45,.27-.57,.58-1.14,.92-1.73,.35-.58,.71-1.13,1.08-1.65,.37-.52,.7-.91,1-1.17,1.17,.17,2.27,.47,3.3,.9,1.03,.43,1.67,.85,1.9,1.25-.47,.43-1,1.11-1.6,2.02-.6,.92-1.18,1.92-1.75,3-.57,1.08-1.08,2.19-1.55,3.33-.47,1.13-.82,2.13-1.05,3,.33-.57,.77-1.18,1.3-1.85,.53-.67,1.35-1.58,2.45-2.75,1.23-1.27,2.39-2.24,3.48-2.92,1.08-.68,2.02-1.03,2.82-1.03,1.27,0,2.31,.35,3.12,1.05,.82,.7,1.23,1.6,1.23,2.7,0,2.4-.4,4.78-1.2,7.12-.8,2.35-1.95,4.48-3.45,6.38-.57,.73-1.23,1.43-2,2.1s-1.57,1.26-2.4,1.77c-.83,.52-1.65,.93-2.45,1.23s-1.52,.45-2.15,.45c-.6,0-1.12-.12-1.58-.38-.45-.25-.76-.56-.92-.93,1.3-.77,2.57-1.83,3.8-3.2s2.38-2.94,3.43-4.73c1.05-1.78,1.97-3.71,2.75-5.77,.78-2.07,1.38-4.17,1.77-6.3-1.27,.67-2.41,1.39-3.42,2.18-1.02,.78-2.03,1.81-3.03,3.07-1.2,1.47-2.15,2.65-2.85,3.55s-1.28,1.67-1.72,2.3c-.45,.63-.82,1.23-1.1,1.77-.28,.55-.59,1.23-.92,2.03-.47,1.07-1.01,2.47-1.62,4.22-.62,1.75-1.25,3.71-1.9,5.88-.65,2.17-1.3,4.48-1.95,6.93-.65,2.45-1.28,4.89-1.88,7.32-.37-.07-.68-.33-.95-.8-.27-.3-.46-.52-.58-.65-.12-.13-.26-.23-.42-.3Zm34.45-14.8c-1.9-.2-3.42-1.03-4.55-2.5-1.13-1.47-1.7-3.33-1.7-5.6,0-1.33,.2-2.72,.6-4.15,.4-1.43,.97-2.83,1.7-4.17,.73-1.35,1.6-2.62,2.6-3.83s2.08-2.23,3.25-3.1c1.83-1.37,3.55-2.05,5.15-2.05,1.07,.57,2.12,1.75,3.15,3.55,.17,0,.32,0,.45-.02,.13-.02,.28-.02,.45-.02,1.77,0,2.65,1.57,2.65,4.7,0,2.1-.34,4.09-1.03,5.98-.68,1.88-1.63,3.59-2.85,5.13s-2.67,2.83-4.35,3.88c-1.68,1.05-3.53,1.79-5.53,2.22Zm2.55-15.75c-.57,.77-1.1,1.6-1.6,2.5s-.93,1.81-1.3,2.73c-.37,.92-.65,1.8-.85,2.65-.2,.85-.3,1.61-.3,2.28,0,.8,.13,1.57,.4,2.3,.27,.73,.57,1.15,.9,1.25,1.5-.33,2.88-.96,4.12-1.88,1.25-.92,2.33-2.06,3.25-3.42,.92-1.37,1.63-2.92,2.15-4.65,.52-1.73,.77-3.58,.77-5.55,0-.87-.05-1.55-.15-2.05-.1-.5-.27-.93-.5-1.3-1.47,.43-2.78,1.13-3.92,2.1-1.15,.97-2.14,1.98-2.98,3.05Zm12.4,13c.17-.97,.46-2.24,.88-3.83,.42-1.58,.91-3.27,1.47-5.05,.57-1.78,1.17-3.58,1.8-5.38,.63-1.8,1.25-3.42,1.85-4.85,.43-1.03,.82-1.84,1.15-2.42,.33-.58,.7-1.08,1.1-1.48,.47,.07,.95,.18,1.45,.35,.5,.17,.98,.37,1.45,.6,.47,.23,.88,.47,1.25,.72,.37,.25,.65,.49,.85,.73-.9,1.07-1.69,2.28-2.38,3.65-.68,1.37-1.38,3.12-2.08,5.25,1.8-1.6,3.39-3.13,4.77-4.6s2.68-3.1,3.88-4.9c.2-.17,.55-.25,1.05-.25,.47,0,.92,.08,1.35,.23,.43,.15,.73,.36,.9,.62-.6,1.6-.9,3.18-.9,4.75,0,1.47,.22,2.57,.65,3.3-.03,.2-.26,.58-.68,1.15-.42,.57-.88,1.1-1.38,1.6-.9-.47-1.7-1.11-2.4-1.93-.7-.82-1.22-1.71-1.55-2.67-1.57,1.1-2.9,2.17-4,3.23-1.1,1.05-2.04,2.22-2.83,3.5-.78,1.28-1.45,2.76-2,4.42-.55,1.67-1.08,3.65-1.58,5.95-.3-.03-.66-.14-1.08-.33-.42-.18-.83-.41-1.25-.67-.42-.27-.79-.55-1.12-.85-.33-.3-.55-.58-.65-.85Zm24.3-18.15c-.17-.2-.32-.62-.45-1.27-.13-.65-.2-1.21-.2-1.68,.87,.13,1.7,.2,2.5,.2h2.2c.5-.99,1.04-1.97,1.62-2.94,.58-.97,1.15-1.86,1.7-2.67,.55-.81,1.07-1.49,1.55-2.05,.48-.56,.86-.92,1.12-1.09,.33,0,.76,.06,1.28,.17,.52,.12,1.04,.27,1.58,.45,.53,.18,1.02,.38,1.45,.57,.43,.2,.73,.4,.9,.6-1,1.26-1.86,2.43-2.58,3.5-.72,1.08-1.49,2.31-2.32,3.7h2.02c.68,0,1.38-.05,2.08-.15,.17,.17,.3,.38,.4,.62,.1,.25,.15,.51,.15,.77-1.63,.63-3.62,.95-5.95,.95-.83,1.6-1.57,3.2-2.22,4.79s-1.2,3.12-1.65,4.59c-.45,1.47-.8,2.86-1.05,4.16-.25,1.3-.38,2.47-.38,3.51,0,1.47,.55,2.29,1.65,2.46,1-.13,1.95-.38,2.85-.75,.9-.37,1.7-.83,2.4-1.4,.2,.3,.32,.55,.35,.75-.2,.3-.54,.65-1.02,1.04-.48,.4-1.01,.79-1.58,1.17-.57,.38-1.12,.7-1.65,.97-.53,.26-.93,.41-1.2,.45-.83,0-1.67-.17-2.5-.5-.83-.33-1.59-.75-2.27-1.25-.68-.5-1.24-1.06-1.67-1.68-.43-.62-.65-1.23-.65-1.83,0-.8,.11-1.81,.33-3.03,.22-1.22,.52-2.54,.92-3.98,.4-1.44,.87-2.94,1.4-4.51,.53-1.57,1.12-3.12,1.75-4.66h-2.85Zm17.4,33.6c-.83-.33-1.33-.97-1.5-1.9-.13-.9-.7-1.63-1.7-2.2,.27-1.7,.57-3.41,.9-5.14,.33-1.73,.76-3.7,1.28-5.92,.52-2.21,1.17-4.79,1.95-7.74,.78-2.95,1.77-6.51,2.97-10.71h-2.6c-.63,0-1.25,.07-1.85,.2-.13-.13-.24-.32-.33-.55s-.12-.45-.12-.65c.33-.13,1.02-.31,2.05-.52,1.03-.22,2.17-.41,3.4-.58,.8-2.53,1.72-4.81,2.75-6.82,1.03-2.02,2.15-3.74,3.35-5.17,1.2-1.43,2.47-2.53,3.8-3.3,1.33-.77,2.68-1.15,4.05-1.15,.4,0,.78,.03,1.15,.08,.37,.05,.65,.08,.85,.08,.3-.23,.7-.44,1.2-.62,.5-.18,.93-.28,1.3-.28,.4,0,.92,.22,1.55,.65-.27,.47-.55,1.1-.85,1.9s-.55,1.58-.75,2.35c-.83,2.46-1.72,4.06-2.65,4.79-.37,0-.57-.48-.6-1.45-.03-.7-.13-1.38-.3-2.05-.13-.3-.23-.57-.28-.8-.05-.23-.08-.53-.08-.9,0-.2,.02-.44,.05-.72s.1-.76,.2-1.42c-.57,0-1.19,.35-1.88,1.04-.68,.7-1.4,1.68-2.15,2.95-.75,1.27-1.51,2.79-2.28,4.54-.77,1.75-1.5,3.69-2.2,5.81h4.2c.17,.16,.31,.5,.42,1.05,.12,.54,.19,1.11,.23,1.7h-5.5c-1.27,3.75-2.45,7.33-3.55,10.75-1.1,3.42-2.08,6.57-2.95,9.46-.87,2.89-1.61,5.47-2.23,7.74-.62,2.27-1.06,4.11-1.33,5.5Zm20.25-12.7c-1.9-.2-3.42-1.03-4.55-2.5-1.13-1.47-1.7-3.33-1.7-5.6,0-1.33,.2-2.72,.6-4.15,.4-1.43,.97-2.83,1.7-4.17,.73-1.35,1.6-2.62,2.6-3.83s2.08-2.23,3.25-3.1c1.83-1.37,3.55-2.05,5.15-2.05,1.07,.57,2.12,1.75,3.15,3.55,.17,0,.32,0,.45-.02,.13-.02,.28-.02,.45-.02,1.77,0,2.65,1.57,2.65,4.7,0,2.1-.34,4.09-1.03,5.98-.68,1.88-1.63,3.59-2.85,5.13s-2.67,2.83-4.35,3.88c-1.68,1.05-3.53,1.79-5.53,2.22Zm2.55-15.75c-.57,.77-1.1,1.6-1.6,2.5s-.93,1.81-1.3,2.73c-.37,.92-.65,1.8-.85,2.65-.2,.85-.3,1.61-.3,2.28,0,.8,.13,1.57,.4,2.3,.27,.73,.57,1.15,.9,1.25,1.5-.33,2.88-.96,4.12-1.88,1.25-.92,2.33-2.06,3.25-3.42,.92-1.37,1.63-2.92,2.15-4.65,.52-1.73,.77-3.58,.77-5.55,0-.87-.05-1.55-.15-2.05-.1-.5-.27-.93-.5-1.3-1.47,.43-2.78,1.13-3.92,2.1-1.15,.97-2.14,1.98-2.98,3.05Zm13.55,10.8c0-1.47,.35-3.52,1.05-6.17,.7-2.65,1.68-5.74,2.95-9.27,2.07-5.63,4.01-10.33,5.83-14.08,1.82-3.75,3.59-6.67,5.33-8.77,.4,.07,.89,.23,1.47,.5,.58,.27,1.16,.56,1.73,.88,.57,.32,1.07,.64,1.52,.98,.45,.33,.74,.6,.88,.8-2.6,3.07-4.88,6.37-6.85,9.9-1.97,3.53-3.77,7.58-5.4,12.15-1.4,3.93-2.47,7.47-3.2,10.62s-1.1,5.78-1.1,7.88v1.05c0,.13,.02,.27,.05,.4-.47-.07-.87-.18-1.2-.35s-.55-.37-.65-.6c-.07-.17-.25-.41-.55-.72-.3-.32-.57-.56-.8-.73-.3-.2-.55-.72-.75-1.58-.2-.85-.3-1.81-.3-2.88Zm11.9-.15c0-.3,.02-.67,.07-1.12,.05-.45,.14-1.05,.28-1.8,.13-.75,.31-1.66,.53-2.73,.22-1.07,.49-2.35,.82-3.85,.07-.33,.22-.87,.45-1.6,.23-.73,.54-1.51,.92-2.32,.38-.82,.85-1.61,1.4-2.38,.55-.77,1.21-1.33,1.97-1.7,.57,.13,1.32,.48,2.25,1.02,.93,.55,1.73,1.31,2.4,2.28-.77,.87-1.41,1.73-1.92,2.6-.52,.87-.98,1.77-1.4,2.7-.42,.93-.8,1.9-1.15,2.9-.35,1-.74,2.05-1.18,3.15-.37,.93-.7,1.89-1,2.88-.3,.98-.47,1.84-.5,2.58,0,.6,0,1.03-.02,1.28-.02,.25-.11,.38-.28,.38-.13,0-.4-.08-.8-.25-.4-.17-.81-.42-1.22-.78-.42-.35-.79-.79-1.12-1.33-.33-.53-.5-1.17-.5-1.9Zm9.55-21.7c0-.2,.05-.5,.15-.9-.17-.17-.31-.42-.42-.75-.12-.33-.17-.63-.17-.9,0-.3,.04-.71,.12-1.23,.08-.52,.19-1.07,.33-1.67,.13-.6,.3-1.23,.5-1.88s.4-1.24,.6-1.77c.4,0,.89,.11,1.48,.32,.58,.22,1.17,.5,1.77,.85,.6,.35,1.15,.73,1.65,1.15,.5,.42,.88,.81,1.15,1.18-.37,.37-.85,.88-1.45,1.52-.6,.65-1.18,1.33-1.75,2.05-.57,.72-1.08,1.39-1.55,2.03-.47,.63-.77,1.08-.9,1.35-.4-.07-.75-.24-1.05-.52-.3-.28-.45-.56-.45-.82Zm8.1,26.8c-1.9-.2-3.42-1.03-4.55-2.5-1.13-1.47-1.7-3.33-1.7-5.6,0-1.33,.2-2.72,.6-4.15,.4-1.43,.97-2.83,1.7-4.17,.73-1.35,1.6-2.62,2.6-3.83s2.08-2.23,3.25-3.1c1.83-1.37,3.55-2.05,5.15-2.05,1.07,.57,2.12,1.75,3.15,3.55,.17,0,.32,0,.45-.02,.13-.02,.28-.02,.45-.02,1.77,0,2.65,1.57,2.65,4.7,0,2.1-.34,4.09-1.03,5.98-.68,1.88-1.63,3.59-2.85,5.13s-2.67,2.83-4.35,3.88c-1.68,1.05-3.53,1.79-5.53,2.22Zm2.55-15.75c-.57,.77-1.1,1.6-1.6,2.5s-.93,1.81-1.3,2.73c-.37,.92-.65,1.8-.85,2.65-.2,.85-.3,1.61-.3,2.28,0,.8,.13,1.57,.4,2.3,.27,.73,.57,1.15,.9,1.25,1.5-.33,2.88-.96,4.12-1.88,1.25-.92,2.33-2.06,3.25-3.42,.92-1.37,1.63-2.92,2.15-4.65,.52-1.73,.77-3.58,.77-5.55,0-.87-.05-1.55-.15-2.05-.1-.5-.27-.93-.5-1.3-1.47,.43-2.78,1.13-3.92,2.1-1.15,.97-2.14,1.98-2.98,3.05Z"/></g><g id="mask"><path class="cls-5" d="M5.5,11.11s6.1,3.46,24.56,0"/><path class="cls-5" d="M16.54,15.23s-9.89,23.41-8.41,30.16"/><path class="cls-4" d="M27.12,46.44s6.49-26.21,22.33-34.54-5.18,9.65-1.86,34.54"/><path class="cls-4" d="M29.3,29.08s8.38-4.23,20.15,0"/><path class="cls-3" d="M73.23,9.69s-6.45,23.04-11.87,34.84"/><path class="cls-3" d="M92.98,10.91s-20.3,11.87-19.21,17.91,4.84,15.2,8.38,17.49"/><path class="cls-3" d="M107.18,9.08s-19.34,35.52,0,37.18c19.34,1.66,16.56-49.35,17.62-37.62"/><path class="cls-5" d="M126.6,46.04S147.22-2.6,148.17,10.78s-8.76,44.15-3.24,31.97S168.9-1.02,167,10.78s-6.09,30.73-3.04,35.25"/><path class="cls-5" d="M188.61,10.76s-12.18,22.42-10.08,32.71"/><path class="cls-3" d="M215.48,10.52s-6.45,23.04-11.87,34.84"/><path class="cls-3" d="M235.22,10.24s-20.3,11.87-19.21,17.91,4.84,15.2,8.38,17.49"/><path class="cls-5" d="M248.91,11.59s-12.18,22.42-10.08,32.71"/><path class="cls-3" d="M263.88,9.69s-6.45,23.04-11.87,34.84"/><path class="cls-3" d="M283.62,10.24s-20.3,11.87-19.21,17.91,4.84,15.2,8.38,17.49"/><path class="cls-3" d="M297.61,9.61s-19.34,35.52,0,37.18c19.34,1.66,16.56-49.35,17.62-37.62"/><path class="cls-5" d="M326.43,12.19s27.05-1.6,24.59,.49-46.35,38.23-35.04,35.96,22.99-5.1,26.06-3.75"/><path class="cls-4" d="M352.26,46.41s6.49-26.21,22.33-34.54-5.18,9.65-1.86,34.54"/><path class="cls-4" d="M354.45,30.18s8.38-4.23,20.15,0"/><path class="cls-5" d="M395.23,9.13s-4.43,40.87,0,35.65S416.26,.82,414.04,9.13s-4.92,43.51-.37,36.11,17.98-37.75,19.55-36.11"/><path class="cls-4" d="M432.01,46.27s6.49-26.21,22.33-34.54-5.18,9.65-1.86,34.54"/><path class="cls-4" d="M434.2,29.24s8.38-4.23,20.15,0"/><path class="cls-5" d="M476.09,5.5s-1.23,9.22-2.95,10.08"/><path class="cls-2" d="M514.04,28.31s1.55-4.23,0-4.34-4.23-4.57-5.72-2.34-3.51,9.79-1.35,13.03-3.53,13.5-7.29,12.56-5-1.75-3.51-3.1,.22-8.98,14.96-8.81"/><path class="cls-4" d="M550.44,20.06s-18.5,41.58-13.91,39.69,3.51-21.42,10.8-27.27,10.93-11.21,12.15-8.85-2.94,19.47-10.64,21.19"/><path class="cls-4" d="M577.42,23.42s-11.27,6.04-10.92,11.63,.44,10.74,3.64,9.68,14.91-9.14,12.25-19.08"/><path class="cls-4" d="M594.9,22.23s-9.94,24.43-7.46,21.67,3.55-9.6,7.46-12.88,8.34-8.39,8.17-5.97-1.04,5.93,.62,5.97"/><path class="cls-4" d="M609.67,23.32s5.65,1.44,13.53,0"/><path class="cls-4" d="M621.73,15.54s-13.14,21.92-10.12,25.65,1.84,3.22,4.08,3.78,5.77-1.56,4.7-2.45"/><path class="cls-3" d="M627.03,23.93s6.82-1.04,12.63-.32"/><path class="cls-5" d="M647.68,10.63s-.36-4.68-4.08-2.73-18.55,39.23-18.02,47.58"/><path class="cls-4" d="M654.22,24.04s-11.27,6.04-10.92,11.63,.44,10.74,3.64,9.68,14.91-9.14,12.25-19.08"/><path class="cls-3" d="M680.79,6.49s-17.76,26.15-15.28,38.15"/><path class="cls-3" d="M682.61,26.42s-6.89,8.27-4.96,15.44"/><path class="cls-3" d="M688.94,13.2s-2.05,2.38-1.5,4.73"/><path class="cls-4" d="M699.97,24.04s-11.27,6.04-10.92,11.63,.44,10.74,3.64,9.68,14.91-9.14,12.25-19.08"/></g></svg>